<svg version="1.2" xmlns="http://www.w3.org/2000/svg" viewBox="0 0 1920 1081" width="1920" height="1081">
	<defs>
		<clipPath clipPathUnits="userSpaceOnUse" id="cp1">
			<path d="m994.52 632h389.9v40h-389.9z"/>
		</clipPath>
		<clipPath clipPathUnits="userSpaceOnUse" id="cp2">
			<path d="m1190.88 640.16c65.44-6.32 129.42-17.73 193.41-0.49v23.07c-66.19-11.65-132.38-5.09-196.36 1.22-65.45 6.31-129.43 17.72-193.41 0.48v-23.06c66.19 11.65 132.37 5.09 196.35-1.22z"/>
		</clipPath>
		<clipPath clipPathUnits="userSpaceOnUse" id="cp3">
			<path d="m993.33 632h392v40h-392z"/>
		</clipPath>
		<clipPath clipPathUnits="userSpaceOnUse" id="cp4">
			<path d="m994.52 632.38h389.8v39.35h-389.8z"/>
		</clipPath>
		<clipPath clipPathUnits="userSpaceOnUse" id="cp5">
			<path d="m1190.88 640.16c65.44-6.32 129.42-17.73 193.41-0.49v23.07c-66.19-11.65-132.38-5.09-196.36 1.22-65.45 6.31-129.43 17.72-193.41 0.48v-23.06c66.19 11.65 132.37 5.09 196.35-1.22z"/>
		</clipPath>
	</defs>
	<style>
		.s0 { fill: #000000 } 
		.s1 { fill: #ed4b63 } 
	</style>
	<g>
		<g>
			<g>
				<path class="s0" d="m1076.92 563.34v135.69h-22.4v-7.35h-0.31q-3.53 4.79-9.29 7.35-5.76 2.56-11.84 2.56-15.52 0.01-25.85-12.14-10.31-12.17-10.31-30.11 0-17.1 10.31-29.27 10.33-12.16 25.54-12.16 6.06 0 11.9 2.56 5.85 2.56 9.54 7.21h0.31v-64.34zm-38.88 74.42q-7.52 0-12.95 6.48-5.44 6.48-5.44 15.44 0 9.1 5.44 15.6 5.43 6.48 13.12 6.48 8 0 13.27-6.73 5.29-6.73 5.29-15.35 0-8.96-5.45-15.44-5.44-6.48-13.28-6.48z"/>
			</g>
		</g>
	</g>
	<g>
		<g>
			<g>
				<path class="s0" d="m1087.48 659.82q0-18.54 11.67-30.23 11.68-11.68 29.6-11.68 18.25 0 29.77 11.85 11.52 11.84 11.52 30.06 0 18.42-11.6 30.11-11.61 11.67-29.69 11.66-18.08 0-29.68-11.75-11.59-11.76-11.59-30.02zm41.13-22.06q-7.53 0-12.98 6.48-5.44 6.48-5.44 15.58 0 8.82 5.44 15.38 5.45 6.56 13.12 6.56 8 0 13.27-6.56 5.29-6.56 5.3-15.38-0.01-8.62-5.21-15.33-5.19-6.73-13.5-6.73z"/>
			</g>
		</g>
	</g>
	<g>
		<g>
			<g>
				<path class="s0" d="m1240.43 617.91l19.38 48.48 16.62-45.92h24.34l-36.48 80.17h-11.38l-16.79-47.86-18.73 47.86h-11.52l-36.15-80.17h24.48l16.32 45.29 19.2-47.85z"/>
			</g>
		</g>
	</g>
	<g>
		<g>
			<g>
				<path class="s0" d="m1376.28 699.03h-22.4v-45.44q0-8.64-2.56-13.2-2.57-4.57-9.61-4.57-6.4 0-9.91 5.05-3.53 5.04-3.52 17.52v40.64h-22.4v-78.56h22.4v7.21h0.33q3.52-5.29 8.96-7.52 5.43-2.25 11.52-2.25 13.58 0 20.37 8.25 6.82 8.23 6.82 24.23z"/>
			</g>
		</g>
	</g>
	<g id="Clip-Path" clip-path="url(#cp1)">
		<g>
			<g id="Clip-Path" clip-path="url(#cp2)">
				<g>
					<g>
						<g id="Clip-Path" clip-path="url(#cp3)">
							<g>
								<g id="Clip-Path" clip-path="url(#cp4)">
									<g>
										<g id="Clip-Path" clip-path="url(#cp5)">
											<g>
												<path class="s1" d="m994.52 632.63h389.75v38.85h-389.75z"/>
											</g>
										</g>
									</g>
								</g>
							</g>
						</g>
					</g>
				</g>
			</g>
		</g>
	</g>
	<g>
		<g>
			<g>
				<path class="s0" d="m1017 413.51l17.27 84.04q4.44 21.55 12.86 30.75 8.43 9.19 21.93 6.4 13.71-2.81 17.75-14.46 4.06-11.64-0.33-33.02l-17.35-84.42 28.79-5.91 18.31 89.14q6.12 29.77-4.52 49.02-10.65 19.23-37.48 24.73-26.84 5.53-44.23-8.06-17.4-13.58-23.48-43.15l-18.31-89.14z"/>
			</g>
		</g>
	</g>
	<g>
		<g>
			<g>
				<path class="s0" d="m1173.82 525.84l-0.37 0.08 12.39 60.36-27.43 5.62-30.32-147.54 27.44-5.62 1.81 8.83q3.52-6.64 10.13-11.25 6.62-4.62 14.08-6.17 12.14-2.49 23.73 2.27 11.58 4.78 19.69 15.44 8.12 10.67 10.87 24 4.54 22.15-5.16 39.56-9.69 17.43-28.67 21.32-7.46 1.52-15.06-0.19-7.61-1.71-13.13-6.71zm5.86-70q-9.24 1.9-14.25 11.21-5.03 9.3-2.77 20.25 2.24 10.98 10.54 17.65 8.31 6.66 17.73 4.72 9.99-2.06 14.66-11.58 4.69-9.51 2.52-20.12-2.25-10.96-10.56-17.52-8.3-6.58-17.87-4.61z"/>
			</g>
		</g>
	</g>
	<g>
		<g>
			<g>
				<path class="s0" d="m584.11 533.24l37.21 99.4 35.6-99.4h21.19l22.6 154.79h-29.6l-12-93.6h-0.4l-34.2 95.6h-10.19l-33-95.6h-0.4l-13.41 93.6h-29.59l25.4-154.79z"/>
			</g>
		</g>
	</g>
	<g>
		<g>
			<g>
				<path class="s0" d="m778.12 589.82h27.59v98.21h-27.59v-9h-0.41q-4.4 5.8-11.71 9-7.3 3.21-14.88 3.21-19.42 0-32.31-15.29-12.9-15.31-12.9-37.52 0-13.79 5.61-25.59 5.6-11.81 15.89-19 10.3-7.2 23.3-7.2 7.6 0 14.89 3.2 7.31 3.19 12.52 9.19zm-20.81 21.61q-9.4 0-16.21 8.1-6.79 8.11-6.79 19.29 0 11.21 6.79 19.42 6.81 8.19 16.42 8.19 9.79 0 16.58-8.09 6.81-8.1 6.81-19.52 0-11.39-6.89-19.39-6.9-8-16.71-8z"/>
			</g>
		</g>
	</g>
	<g>
		<g>
			<g>
				<path class="s0" d="m886.91 615.03q-5.21-3.6-11.6-3.6-10.79 0-16.1 7.31-5.3 7.3-5.3 24.08v45.21h-28v-98.21h28v10.21h0.4q4.21-6.39 10.4-9.89 6.2-3.5 14-3.5 5.81 0.19 11.6 2.39z"/>
			</g>
		</g>
	</g>
	<g>
		<g>
			<g>
				<path class="s0" d="m927.31 518.43v107.39h0.4l29.4-36h36.41l-41.41 43.21 44.6 55h-36.79l-32.21-41.79h-0.4v41.79h-28v-169.6z"/>
			</g>
		</g>
	</g>
</svg>